<svg version="1.1" id="Layer_1" xmlns="http://www.w3.org/2000/svg" xmlns:xlink="http://www.w3.org/1999/xlink" x="0px" y="0px"
	 width="100%" viewBox="0 0 2450 544" enable-background="new 0 0 2450 544" xml:space="preserve">
<path fill="#FFFFFF" opacity="1.000000" stroke="none" 
	d="
M2451.000000,467.000000 
	C2451.000000,492.995148 2451.000000,518.990295 2451.000000,544.992676 
	C1742.637329,545.000000 1034.274658,545.000000 325.739990,544.705566 
	C332.951569,543.558167 340.397400,543.062195 347.706909,541.785583 
	C370.305756,537.839050 392.268616,531.571594 413.246826,522.220215 
	C419.049500,519.633606 424.394287,516.019897 429.976868,512.915894 
	C430.004608,512.954468 429.916565,512.919067 430.283936,512.971191 
	C431.405426,512.557495 432.159576,512.091675 433.195740,511.430969 
	C440.732819,506.923279 447.996185,502.624268 455.239746,498.292206 
	C459.338898,495.840637 459.807251,492.369690 458.548889,487.994415 
	C451.768860,464.420959 438.093262,445.968353 417.379425,432.948730 
	C406.726562,426.252899 395.078491,422.860321 382.938324,425.051025 
	C380.958191,431.861542 379.137970,438.122070 377.317780,444.382599 
	C376.146332,443.482941 376.074738,442.859528 376.156708,442.257019 
	C378.662415,423.845276 373.609344,407.597656 361.577850,393.657196 
	C353.240601,383.997162 343.094849,376.977692 330.066101,374.965576 
	C326.983704,374.489532 325.444946,375.334076 324.109558,378.410706 
	C322.317871,382.538727 319.493011,386.218231 317.076447,390.062439 
	C317.041229,390.034607 316.971497,389.978149 316.936218,389.576904 
	C317.090118,388.367645 317.273254,387.558136 317.469391,386.751801 
	C323.898743,360.323792 319.439880,336.279694 301.540283,315.323853 
	C296.437775,309.350098 290.258484,304.654144 283.028656,301.822296 
	C280.634033,307.945801 278.375610,313.721161 276.117157,319.496490 
	C275.689423,319.359680 275.261688,319.222900 274.833954,319.086090 
	C278.109680,300.159668 279.013123,281.355377 271.625854,263.115784 
	C263.955719,244.177704 250.136353,232.253601 228.840897,226.359467 
	C232.190384,241.010422 235.244263,254.368332 238.155701,267.855255 
	C238.013260,267.984253 237.724350,268.237701 237.438232,268.055878 
	C212.200989,230.121567 203.074539,188.819244 209.021042,143.971619 
	C204.160965,145.102585 201.348328,148.959778 200.195053,153.499527 
	C198.610840,159.735703 197.444214,166.194870 197.127640,172.609268 
	C196.631607,182.659378 196.996048,192.751953 196.996048,204.350342 
	C195.802505,202.004227 195.286667,201.039124 194.813721,200.053436 
	C184.253311,178.044037 167.777100,161.982407 145.908920,151.308273 
	C124.221748,140.722473 100.816017,136.692642 77.283218,132.950943 
	C62.854034,130.656723 48.361164,128.380188 34.207531,124.850197 
	C21.631338,121.713638 11.479236,115.060829 11.271552,99.564430 
	C9.204926,102.879715 7.394100,106.163094 6.093085,109.637383 
	C4.202525,114.686035 2.679665,119.872375 1.000000,125.000000 
	C1.000000,83.708549 1.000000,42.417099 1.000000,1.000000 
	C95.029335,1.000000 189.058716,1.000000 283.250427,1.286614 
	C272.764740,3.020760 262.028107,3.999646 251.483673,5.994617 
	C197.535400,16.201456 151.281174,41.186443 112.068588,79.426651 
	C103.610207,87.675285 103.692825,87.759598 109.007011,97.941071 
	C109.315239,98.531616 109.579628,99.147736 109.921959,99.717369 
	C112.429047,103.889145 114.950844,108.052086 117.598419,112.433647 
	C190.486969,36.103104 277.220520,11.886489 378.971863,39.163548 
	C378.971863,31.142839 378.779480,23.688169 379.055939,16.250931 
	C379.186981,12.726123 377.891815,10.964897 374.602509,10.330008 
	C361.932404,7.884449 349.281860,5.332257 336.587555,3.020050 
	C331.439850,2.082425 326.198639,1.657966 321.000000,1.000000 
	C1030.887085,1.000000 1740.774292,1.000000 2451.000000,1.000000 
	C2451.000000,154.029205 2451.000000,307.058655 2450.728271,460.332275 
	C2447.228271,452.304901 2443.359375,450.060852 2432.323975,450.060852 
	C1784.717773,450.060638 1137.111572,450.060425 489.505371,450.061340 
	C488.005615,450.061340 486.492981,449.952301 485.008118,450.105316 
	C473.581604,451.282898 467.844025,460.583801 472.685669,470.229919 
	C475.783081,476.401001 481.516449,477.025085 487.602234,477.024872 
	C1135.541748,477.000092 1783.481323,476.988831 2431.420898,477.141144 
	C2440.219971,477.143219 2447.074219,475.424652 2451.000000,467.000000 
M2135.820557,128.722672 
	C2126.714600,113.554344 2114.472168,101.559334 2099.222900,92.626686 
	C2074.381592,78.075340 2047.095215,72.749344 2018.794922,72.490044 
	C1974.137817,72.080887 1929.473755,72.452797 1884.813477,72.286102 
	C1880.330078,72.269363 1879.287476,73.562706 1879.292847,77.911911 
	C1879.416748,178.232254 1879.389160,278.552765 1879.402710,378.873260 
	C1879.402954,380.643768 1879.563721,382.414246 1879.650879,384.212616 
	C1904.036499,384.212616 1927.902954,384.212616 1952.268311,384.212616 
	C1952.268311,355.229797 1952.268311,326.650635 1952.268311,297.854034 
	C1973.093750,297.854034 1993.418091,297.945282 2013.739990,297.765656 
	C2017.193848,297.735138 2019.085571,298.956146 2020.971191,301.700592 
	C2039.174805,328.195923 2057.559570,354.566864 2075.760498,381.064026 
	C2077.583496,383.717804 2079.474854,384.709320 2082.684326,384.690247 
	C2105.180176,384.556702 2127.677246,384.635376 2150.174072,384.624390 
	C2151.767090,384.623596 2153.359863,384.449097 2155.981934,384.294800 
	C2132.476562,350.574738 2109.506104,317.621948 2086.313232,284.349915 
	C2088.301270,283.364990 2089.767090,282.625702 2091.243896,281.909241 
	C2106.625244,274.447662 2120.455811,264.728394 2130.047363,250.479355 
	C2156.291992,211.491135 2156.546875,170.877335 2135.820557,128.722672 
M1757.500000,254.612122 
	C1778.661743,254.612183 1799.825317,254.458298 1820.983643,254.730026 
	C1825.749268,254.791260 1826.821289,253.277115 1826.709351,248.812424 
	C1826.417114,237.155945 1826.612915,225.487228 1826.613892,213.823395 
	C1826.614380,208.700104 1826.614136,203.576813 1826.614136,197.951294 
	C1778.126221,197.951294 1730.226440,197.951294 1682.290039,197.951294 
	C1682.290039,175.249695 1682.290039,153.062424 1682.290039,130.610199 
	C1684.882324,130.610199 1687.040283,130.610199 1689.198242,130.610214 
	C1739.519409,130.610428 1789.840698,130.551666 1840.161255,130.713135 
	C1844.601440,130.727371 1845.800171,129.538940 1845.723999,125.133690 
	C1845.455811,109.642090 1845.399170,94.138084 1845.745728,78.649605 
	C1845.858887,73.595490 1844.544312,72.252335 1839.423584,72.264297 
	C1764.775391,72.438690 1690.126831,72.382706 1615.478271,72.381706 
	C1613.717773,72.381683 1611.957275,72.381699 1610.231934,72.381699 
	C1610.231934,176.844925 1610.231934,280.543304 1610.231934,384.271973 
	C1690.674072,384.271973 1770.729370,384.271973 1850.855469,384.271973 
	C1850.855469,364.835327 1850.855469,345.750336 1850.855469,326.132874 
	C1794.499390,326.132874 1738.440308,326.132874 1682.218506,326.132874 
	C1682.218506,302.054657 1682.218506,278.512756 1682.218506,254.611679 
	C1707.220459,254.611679 1731.860229,254.611679 1757.500000,254.612122 
M759.995544,124.500000 
	C759.995544,211.083466 759.995544,297.666931 759.995544,384.222961 
	C784.402405,384.222961 808.119873,384.222961 832.345703,384.222961 
	C832.345703,355.573181 832.345703,327.315063 832.345703,298.610382 
	C834.665955,298.610382 836.474854,298.610382 838.283752,298.610413 
	C857.282349,298.610809 876.281372,298.696442 895.279358,298.585480 
	C911.465393,298.490967 927.519592,297.019806 943.251160,292.977234 
	C973.336060,285.246277 998.826538,270.659271 1015.451965,243.441727 
	C1028.046387,222.823456 1031.862427,200.125473 1030.155029,176.282822 
	C1027.558716,140.026535 1011.383606,111.867905 980.068054,92.979675 
	C954.784546,77.729752 926.737915,72.691895 897.743652,72.473747 
	C853.916138,72.143982 810.084229,72.389931 766.254211,72.391205 
	C764.301453,72.391266 762.348694,72.391212 759.995544,72.391212 
	C759.995544,89.887932 759.995544,106.693970 759.995544,124.500000 
M1217.865234,150.644318 
	C1206.921875,126.205093 1195.874512,101.811462 1185.142456,77.279800 
	C1183.443604,73.396385 1181.345215,72.266762 1177.304688,72.304291 
	C1156.981567,72.493073 1136.654907,72.481216 1116.331421,72.307945 
	C1112.609619,72.276222 1110.814819,73.477310 1109.285889,76.916336 
	C1064.486938,177.677780 1019.564209,278.384247 974.673401,379.104889 
	C973.970581,380.681702 973.418457,382.325684 972.535339,384.613617 
	C975.006470,384.613617 976.635132,384.613464 978.263794,384.613617 
	C998.921936,384.615417 1019.582031,384.467926 1040.236816,384.732819 
	C1044.919678,384.792847 1047.245239,383.409546 1049.003174,378.984009 
	C1056.553345,359.976807 1064.555298,341.149536 1072.237061,322.193665 
	C1073.530273,319.002228 1075.141846,317.746338 1078.781860,317.758270 
	C1123.929443,317.906281 1169.077759,317.909637 1214.225342,317.759277 
	C1217.927246,317.746948 1219.388062,319.147278 1220.667847,322.298401 
	C1228.550293,341.707550 1236.688843,361.012756 1244.552124,380.429504 
	C1245.797363,383.504120 1247.272827,384.724060 1250.711792,384.698212 
	C1273.201172,384.529114 1295.692505,384.607635 1318.183105,384.577759 
	C1319.396851,384.576141 1320.610352,384.327057 1321.849854,384.190308 
	C1321.716553,383.385956 1321.729492,383.032562 1321.599976,382.742859 
	C1287.116211,305.610565 1252.622681,228.482681 1217.865234,150.644318 
M2177.782715,300.108429 
	C2170.072510,317.056671 2162.301514,333.977936 2154.786865,351.012604 
	C2154.274902,352.172760 2155.196045,355.013428 2156.290039,355.666992 
	C2164.703613,360.692291 2173.025146,366.038971 2181.937744,370.029266 
	C2208.182129,381.779205 2235.945068,387.410431 2264.573730,389.256226 
	C2291.910645,391.018738 2318.880615,389.236542 2344.835693,380.001892 
	C2382.064941,366.756012 2407.834229,343.036652 2412.423096,301.668671 
	C2414.801758,280.223450 2410.415283,260.218018 2396.182129,243.210220 
	C2384.137207,228.817200 2368.349365,219.688889 2350.849365,214.339447 
	C2327.196533,207.109238 2303.061768,201.454376 2279.131836,195.130447 
	C2266.739990,191.855667 2254.253418,188.742371 2243.498047,181.340820 
	C2229.649414,171.810699 2227.666504,153.887711 2238.924072,141.373917 
	C2247.081299,132.306442 2257.952637,128.853943 2269.467041,126.979225 
	C2296.987061,122.498535 2323.518555,126.836411 2349.255859,136.720856 
	C2358.671143,140.336823 2367.721924,144.902145 2377.299316,149.196014 
	C2378.082031,147.517456 2378.980225,145.784088 2379.714600,143.983948 
	C2384.802246,131.510376 2389.854736,119.022392 2394.921143,106.540176 
	C2399.985596,94.062187 2399.968750,94.099915 2387.552979,87.986298 
	C2362.239258,75.521881 2335.314941,69.526337 2307.303223,67.708221 
	C2278.947754,65.867790 2251.080078,67.994461 2224.204346,77.900040 
	C2184.505615,92.531654 2156.425293,124.667061 2160.044434,172.775528 
	C2161.500977,192.136322 2168.840332,208.797394 2183.388672,222.043625 
	C2198.440430,235.748062 2216.622559,243.484192 2235.809570,248.845490 
	C2256.767090,254.701523 2278.133057,259.115967 2299.023926,265.182159 
	C2309.598633,268.252747 2320.315186,272.320160 2329.554932,278.168762 
	C2344.962402,287.921570 2345.055664,308.640106 2330.335938,319.515839 
	C2325.123291,323.367126 2318.753174,326.371429 2312.458252,327.915894 
	C2281.566895,335.494934 2251.363770,331.162109 2221.653320,321.297577 
	C2206.236572,316.178925 2192.055176,308.564575 2177.782715,300.108429 
M1432.767456,69.141853 
	C1429.331787,69.767410 1425.877930,70.306580 1422.463379,71.031570 
	C1378.909302,80.278946 1343.253906,101.804726 1318.431885,139.345062 
	C1296.397461,172.670029 1289.135986,209.716248 1293.965942,249.016129 
	C1300.887207,305.332458 1330.056396,346.518829 1380.764771,371.875305 
	C1410.941406,386.965057 1443.285889,391.653107 1476.843140,389.230804 
	C1503.479492,387.308105 1528.635620,380.661713 1551.801270,367.166199 
	C1566.588135,358.551941 1579.434937,347.661865 1590.445068,333.960510 
	C1574.844238,319.571167 1559.511841,305.429504 1544.156616,291.266846 
	C1501.010742,342.426392 1429.622070,334.537811 1395.649536,302.111328 
	C1359.909424,267.997589 1355.610474,203.225983 1386.910522,164.506973 
	C1404.083618,143.263367 1426.744873,132.198227 1453.544312,129.469040 
	C1489.701538,125.786888 1519.856812,138.048645 1543.965454,165.438278 
	C1559.694458,150.898376 1574.944336,136.801468 1590.354004,122.556717 
	C1589.166992,121.077965 1588.289062,119.882607 1587.308594,118.778305 
	C1568.460815,97.549950 1545.210815,83.226257 1518.136353,75.068115 
	C1490.448975,66.725311 1462.223267,65.247864 1432.767456,69.141853 
M399.994110,45.765579 
	C400.045288,61.096828 400.136169,76.428062 400.140656,91.759323 
	C400.157562,149.756332 400.119781,207.753403 400.209351,265.750275 
	C400.214966,269.391693 398.880066,271.321625 395.760254,273.184357 
	C370.164032,288.467010 357.357574,319.331482 364.627106,347.614502 
	C376.220703,392.720764 425.090759,414.368561 467.680573,394.326111 
	C513.957520,372.548462 522.191467,304.623810 477.359680,275.048615 
	C473.007751,272.177643 471.748260,268.955566 471.761292,263.987518 
	C471.947815,192.656326 471.986572,121.324669 471.931580,49.993214 
	C471.928040,45.392555 471.545807,40.579678 470.178192,36.230801 
	C465.286407,20.675591 448.926208,10.710423 432.117981,12.522292 
	C414.785522,14.390670 402.295776,26.959944 399.994110,45.765579 
M685.951172,368.449890 
	C696.385498,355.149017 706.819824,341.848175 717.563721,328.152710 
	C713.182251,325.441010 710.027161,323.488342 707.384521,321.852814 
	C700.256836,330.898712 693.851257,339.618011 686.766663,347.745453 
	C683.695190,351.268982 679.534424,354.206512 675.311523,356.271027 
	C670.020386,358.857697 665.463318,355.586304 665.701843,349.733398 
	C665.876343,345.450104 666.563965,341.104187 667.660828,336.954865 
	C678.190247,297.125214 688.841187,257.327637 699.490173,217.529648 
	C702.862000,204.928299 706.332397,192.353317 709.612427,180.300079 
	C679.873718,184.184311 650.424866,188.030701 620.676270,191.916229 
	C620.676270,195.174286 620.676270,198.934982 620.676270,202.718674 
	C626.335632,203.476852 631.795227,203.979507 637.161255,204.982697 
	C644.540649,206.362305 647.789368,211.236862 646.638733,218.681900 
	C646.334839,220.648209 645.833069,222.591736 645.309570,224.515091 
	C639.070068,247.438370 632.660950,270.316742 626.599243,293.286804 
	C621.388062,313.034241 615.856140,332.739288 611.769470,352.729523 
	C607.514160,373.544281 620.843201,388.810883 641.972229,389.175201 
	C659.772644,389.482086 673.466125,381.079468 685.951172,368.449890 
M529.831787,121.711990 
	C522.279114,111.875160 515.788818,101.161072 505.970734,91.760643 
	C505.970734,106.359512 505.923492,119.678658 506.033875,132.996506 
	C506.046875,134.564316 506.584229,136.353836 507.455383,137.654099 
	C518.061768,153.485184 526.361389,170.465729 533.129333,188.243881 
	C541.572937,210.423645 546.354370,233.454987 547.773132,257.037018 
	C548.548767,269.928406 548.405884,283.073273 546.776733,295.861725 
	C544.671570,312.387024 541.506409,328.890900 537.272827,345.003326 
	C531.715820,366.152618 521.930542,385.645599 510.336151,404.196808 
	C509.681580,405.244110 509.227142,407.322723 509.797577,408.087952 
	C515.015442,415.087372 520.481018,421.902130 526.227478,429.220551 
	C527.439636,427.586823 528.641418,426.262787 529.510559,424.747864 
	C535.454956,414.386841 541.767944,404.207275 547.148865,393.558319 
	C567.919617,352.452423 577.463745,308.828308 574.953247,262.782043 
	C574.233459,249.580215 573.058777,236.320343 570.847839,223.298462 
	C564.643250,186.755508 550.343262,153.334641 529.831787,121.711990 
M715.608582,85.826347 
	C709.560608,81.031487 702.616272,79.458305 695.027954,79.882477 
	C680.237244,80.709251 668.382141,92.729012 667.222839,108.209435 
	C666.182983,122.094452 676.828064,136.230591 690.455566,139.061310 
	C704.772949,142.035370 717.974915,135.869019 724.369446,123.221031 
	C730.637878,110.822426 727.468384,96.468277 715.608582,85.826347 
M303.179077,84.904953 
	C300.444641,93.240593 302.459595,100.367729 309.028076,106.018845 
	C316.247070,112.229614 326.468811,112.359428 334.389374,106.673218 
	C341.603699,101.494011 344.417572,92.348091 340.664764,83.564621 
	C335.650146,71.827927 330.073364,60.330032 324.634674,48.778225 
	C324.133240,47.713108 322.886261,46.998997 321.985474,46.121906 
	C321.037201,47.147194 319.744995,48.015450 319.194031,49.222137 
	C313.891113,60.836887 308.713043,72.508652 303.179077,84.904953 
M354.169189,136.404556 
	C353.015045,137.292053 351.333160,137.934113 350.788574,139.105087 
	C345.470245,150.540939 340.206696,162.006729 335.203552,173.583298 
	C331.446198,182.277328 333.913208,191.236816 341.139313,196.786850 
	C348.065796,202.106781 358.087585,202.235672 365.352417,197.098251 
	C372.908234,191.755066 375.959991,182.933273 372.204071,174.228226 
	C366.755554,161.600342 360.610596,149.272949 354.169189,136.404556 
M292.604187,129.882645 
	C289.954773,124.338867 287.369751,118.762558 284.598602,113.280319 
	C284.079895,112.254128 282.780518,110.922493 281.905792,110.968048 
	C280.982666,111.016136 279.791748,112.387177 279.309784,113.448952 
	C274.024719,125.091957 268.652191,136.703873 263.788818,148.523972 
	C262.470093,151.729065 261.907501,155.762238 262.509216,159.146637 
	C264.570679,170.741714 276.117523,177.611191 287.373077,174.500458 
	C299.237061,171.221573 305.217804,159.849640 300.817749,148.306656 
	C298.515594,142.267303 295.570526,136.473022 292.604187,129.882645 
M487.774780,122.439964 
	C484.335724,122.439964 480.896667,122.439964 477.218109,122.439964 
	C477.218109,126.451958 477.218109,130.000504 477.218109,133.709869 
	C481.275818,133.709869 485.117065,133.709869 489.538544,133.709869 
	C489.200867,129.799744 488.893738,126.243095 487.774780,122.439964 
M487.360413,154.139786 
	C488.172913,150.522217 488.985382,146.904633 489.838562,143.105972 
	C484.802887,143.105972 481.215118,143.105972 477.392090,143.105972 
	C477.392090,146.776703 477.392090,150.173035 477.392090,154.162933 
	C480.531799,154.162933 483.465759,154.162933 487.360413,154.139786 
M483.378784,227.390564 
	C481.323029,227.390564 479.267303,227.390564 477.346497,227.390564 
	C477.346497,230.748474 477.346497,233.292465 477.346497,235.756866 
	C481.452545,235.756866 485.179840,235.756866 488.952515,235.756866 
	C488.952515,232.915909 488.952515,230.348129 488.952515,227.391251 
	C487.186707,227.391251 485.729004,227.391251 483.378784,227.390564 
M477.309967,99.852562 
	C477.309967,102.441879 477.309967,105.031197 477.309967,107.888390 
	C481.335114,107.888390 485.023315,107.888390 488.928101,107.888390 
	C488.928101,104.895866 488.928101,102.183022 488.928101,99.192986 
	C485.114838,99.192986 481.532837,99.192986 477.309967,99.852562 
M487.959290,168.158478 
	C484.516876,168.158478 481.074432,168.158478 477.481384,168.158478 
	C477.481384,171.038940 477.481384,173.397034 477.481384,175.764908 
	C481.599548,175.764908 485.349152,175.764908 489.832489,175.764908 
	C489.457184,173.084427 489.128052,170.733963 487.959290,168.158478 
M488.877960,57.844387 
	C485.054230,57.544540 481.230499,57.244698 477.310974,56.937340 
	C477.310974,60.110386 477.310974,62.483566 477.310974,64.874176 
	C481.350861,64.874176 485.065704,64.874176 489.115784,64.874176 
	C489.115784,62.639812 489.115784,60.694519 488.877960,57.844387 
M484.481812,216.187210 
	C485.921021,216.097931 487.360260,216.008652 488.829651,215.917511 
	C488.829651,213.220444 488.829651,210.853104 488.829651,208.528610 
	C484.762451,208.528610 481.071106,208.528610 477.402588,208.528610 
	C477.402588,211.191513 477.402588,213.444565 477.402588,216.187759 
	C479.628815,216.187759 481.574310,216.187759 484.481812,216.187210 
M482.547791,198.004395 
	C484.647522,198.004395 486.747284,198.004395 488.812805,198.004395 
	C488.812805,195.020813 488.812805,192.645340 488.812805,190.301941 
	C484.728668,190.301941 481.001556,190.301941 477.143402,190.301941 
	C477.143402,192.877945 477.143402,195.147186 477.143402,197.746185 
	C478.710327,197.837357 480.151672,197.921204 482.547791,198.004395 
M489.158600,84.439590 
	C489.158600,82.501579 489.158600,80.563568 489.158600,78.453850 
	C484.923584,78.453850 481.221130,78.453850 477.493225,78.453850 
	C477.493225,81.169006 477.493225,83.543251 477.493225,86.539948 
	C481.610901,86.126045 485.303650,85.754852 489.158600,84.439590 
z"/>
<path fill="#BFE0F0" opacity="1.000000" stroke="none" 
	d="
M2451.000000,466.571533 
	C2447.074219,475.424652 2440.219971,477.143219 2431.420898,477.141144 
	C1783.481323,476.988831 1135.541748,477.000092 487.602234,477.024872 
	C481.516449,477.025085 475.783081,476.401001 472.685669,470.229919 
	C467.844025,460.583801 473.581604,451.282898 485.008118,450.105316 
	C486.492981,449.952301 488.005615,450.061340 489.505371,450.061340 
	C1137.111572,450.060425 1784.717773,450.060638 2432.323975,450.060852 
	C2443.359375,450.060852 2447.228271,452.304901 2450.728271,460.788208 
	C2451.000000,462.714355 2451.000000,464.428711 2451.000000,466.571533 
z"/>
<path fill="#909E3F" opacity="1.000000" stroke="none" 
	d="
M238.298157,267.726257 
	C235.244263,254.368332 232.190384,241.010422 228.840897,226.359467 
	C250.136353,232.253601 263.955719,244.177704 271.625854,263.115784 
	C279.013123,281.355377 278.109680,300.159668 274.833954,319.086090 
	C275.261688,319.222900 275.689423,319.359680 276.117157,319.496490 
	C278.375610,313.721161 280.634033,307.945801 283.028656,301.822296 
	C290.258484,304.654144 296.437775,309.350098 301.540283,315.323853 
	C319.439880,336.279694 323.898743,360.323792 317.469391,386.751801 
	C317.273254,387.558136 317.090118,388.367645 316.697937,389.679108 
	C316.499207,390.562927 316.503418,390.943268 316.507660,391.323639 
	C316.708984,390.912506 316.910309,390.501404 317.111664,390.090271 
	C319.493011,386.218231 322.317871,382.538727 324.109558,378.410706 
	C325.444946,375.334076 326.983704,374.489532 330.066101,374.965576 
	C343.094849,376.977692 353.240601,383.997162 361.577850,393.657196 
	C373.609344,407.597656 378.662415,423.845276 376.156708,442.257019 
	C376.074738,442.859528 376.146332,443.482941 377.317780,444.382599 
	C379.137970,438.122070 380.958191,431.861542 382.938324,425.051025 
	C395.078491,422.860321 406.726562,426.252899 417.379425,432.948730 
	C438.093262,445.968353 451.768860,464.420959 458.548889,487.994415 
	C459.807251,492.369690 459.338898,495.840637 455.239746,498.292206 
	C447.996185,502.624268 440.732819,506.923279 432.852966,511.478699 
	C431.457642,512.120483 430.687103,512.519775 429.916565,512.919067 
	C429.916565,512.919067 430.004608,512.954468 429.577026,512.893738 
	C408.355164,518.894653 387.979370,518.717651 368.028809,508.498871 
	C356.435089,501.608459 348.082947,492.303070 344.174164,479.683960 
	C342.652954,474.772949 340.554169,473.561340 335.522949,473.788666 
	C316.622528,474.642822 299.402832,469.991547 286.225769,455.487183 
	C274.635925,442.729889 270.676361,427.088684 270.936249,410.244263 
	C270.993683,406.524170 270.033447,404.859406 266.287018,403.569092 
	C243.452957,395.705017 228.593170,380.054108 223.422989,356.365082 
	C221.245895,346.389954 221.180695,335.953857 220.099289,325.166779 
	C220.154755,325.192719 219.451950,324.774597 218.693954,324.522217 
	C204.396988,319.761597 195.160339,309.849792 190.020355,295.974640 
	C184.110474,280.021118 184.625137,263.653290 187.462494,247.214157 
	C189.688751,234.315598 190.538849,221.388947 187.620331,208.518875 
	C183.463730,190.189163 171.066208,178.682037 155.226303,170.093338 
	C134.065796,158.619690 111.155106,157.080612 87.792259,158.081146 
	C86.965858,158.116547 86.169838,158.861313 84.918991,159.500702 
	C91.428055,160.397568 97.380066,161.022766 103.258469,162.063721 
	C121.784554,165.344437 139.592224,170.572220 154.520096,182.726868 
	C163.746704,190.239380 170.124329,199.622406 172.652832,211.778976 
	C160.120224,207.732925 149.180954,206.698792 135.200607,208.188416 
	C111.893127,210.671829 88.681831,214.497467 64.706741,213.031250 
	C55.970909,210.492493 47.631939,208.076431 39.043739,205.429504 
	C22.737179,196.410522 11.904677,183.178925 5.882761,166.015686 
	C3.932439,160.457031 2.609773,154.678146 1.000001,149.000000 
	C1.000000,141.312424 1.000000,133.624847 1.000000,125.468636 
	C2.679665,119.872375 4.202525,114.686035 6.093085,109.637383 
	C7.394100,106.163094 9.204926,102.879715 11.271552,99.564430 
	C11.479236,115.060829 21.631338,121.713638 34.207531,124.850197 
	C48.361164,128.380188 62.854034,130.656723 77.283218,132.950943 
	C100.816017,136.692642 124.221748,140.722473 145.908920,151.308273 
	C167.777100,161.982407 184.253311,178.044037 194.813721,200.053436 
	C195.286667,201.039124 195.802505,202.004227 196.996048,204.350342 
	C196.996048,192.751953 196.631607,182.659378 197.127640,172.609268 
	C197.444214,166.194870 198.610840,159.735703 200.195053,153.499527 
	C201.348328,148.959778 204.160965,145.102585 209.021042,143.971619 
	C203.074539,188.819244 212.200989,230.121567 237.501572,268.314301 
	C238.138626,268.938904 238.426208,269.123260 238.713776,269.307617 
	C238.575241,268.780487 238.436691,268.253387 238.298157,267.726257 
M361.875671,496.835876 
	C361.875671,496.835876 361.635651,496.699158 361.635651,496.699158 
	C361.635651,496.699158 361.985535,497.040009 362.379791,497.574738 
	C367.896423,500.674561 373.413055,503.774353 379.573914,507.270874 
	C395.844604,513.202576 411.957916,512.218811 427.976898,506.414398 
	C412.851013,507.920532 397.846710,507.277008 382.203766,504.032349 
	C375.442841,501.722015 368.681946,499.411682 361.875671,496.835876 
M214.886963,316.436859 
	C215.109268,316.505341 215.331573,316.573822 215.553879,316.642334 
	C215.357178,316.436859 215.160477,316.231384 214.754059,315.390228 
	C201.271591,303.043945 195.468033,286.585907 190.468643,268.952057 
	C187.699539,285.082184 199.571091,309.044006 213.164139,315.782654 
	C213.693619,316.045135 214.424057,315.902283 214.886963,316.436859 
M238.443756,365.025146 
	C234.823364,358.601196 231.202972,352.177277 227.206207,345.085480 
	C228.687119,367.158752 243.952393,390.021088 258.457397,393.505188 
	C252.114883,384.494812 245.477875,375.066071 238.443756,365.025146 
M292.022064,453.483368 
	C301.713043,462.965363 313.516388,467.281586 327.982849,468.198944 
	C304.122467,458.209534 296.518372,452.289276 279.751312,432.687622 
	C282.376495,440.954895 286.069519,447.466278 292.022064,453.483368 
M260.061768,394.499786 
	C260.257172,394.566345 260.452576,394.632904 260.647949,394.699493 
	C260.588104,394.517151 260.528229,394.334839 260.061768,394.499786 
z"/>
<path fill="#FFFFFF" opacity="1.000000" stroke="none" 
	d="
M1.000001,149.468658 
	C2.609773,154.678146 3.932439,160.457031 5.882761,166.015686 
	C11.904677,183.178925 22.737179,196.410522 38.964550,205.862213 
	C38.928562,207.667053 38.772285,208.819946 38.509109,209.947891 
	C33.901291,229.696594 31.107580,249.733475 31.196911,269.981812 
	C31.256685,283.530487 32.521862,297.119080 34.004192,310.606628 
	C36.946243,337.376160 44.784126,362.865326 56.161285,387.192444 
	C72.410439,421.937042 94.859192,452.042511 123.746307,477.489777 
	C146.810898,497.807892 172.492813,513.663025 200.802368,525.280884 
	C223.289658,534.509460 246.634842,540.703369 270.910553,543.104065 
	C275.293335,543.537415 279.637817,544.358093 284.000000,545.000000 
	C189.727463,545.000000 95.454918,545.000000 1.000000,545.000000 
	C1.000000,413.312500 1.000000,281.624908 1.000001,149.468658 
z"/>
<path fill="#BFDFF0" opacity="1.000000" stroke="none" 
	d="
M284.468658,545.000000 
	C279.637817,544.358093 275.293335,543.537415 270.910553,543.104065 
	C246.634842,540.703369 223.289658,534.509460 200.802368,525.280884 
	C172.492813,513.663025 146.810898,497.807892 123.746307,477.489777 
	C94.859192,452.042511 72.410439,421.937042 56.161285,387.192444 
	C44.784126,362.865326 36.946243,337.376160 34.004192,310.606628 
	C32.521862,297.119080 31.256685,283.530487 31.196911,269.981812 
	C31.107580,249.733475 33.901291,229.696594 38.509109,209.947891 
	C38.772285,208.819946 38.928562,207.667053 39.213779,206.093079 
	C47.631939,208.076431 55.970909,210.492493 64.692589,213.450836 
	C64.779213,215.952484 64.594749,217.936371 64.170242,219.867508 
	C58.100601,247.479034 56.573532,275.347839 60.175850,303.374603 
	C62.999054,325.339691 68.648628,346.623291 77.143394,367.140900 
	C87.416748,391.954407 101.444557,414.478943 119.199966,434.502655 
	C142.530197,460.813324 170.183395,481.513947 202.293015,496.181396 
	C231.830933,509.674133 262.879944,516.956482 295.198578,517.734497 
	C311.045593,518.116028 327.008728,516.461243 342.812347,514.743835 
	C351.410645,513.809448 359.784973,510.814453 368.260345,508.748901 
	C387.979370,518.717651 408.355164,518.894653 429.549255,512.855225 
	C424.394287,516.019897 419.049500,519.633606 413.246826,522.220215 
	C392.268616,531.571594 370.305756,537.839050 347.706909,541.785583 
	C340.397400,543.062195 332.951569,543.558167 325.284058,544.705566 
	C311.645782,545.000000 298.291534,545.000000 284.468658,545.000000 
z"/>
<path fill="#BFDFF0" opacity="1.000000" stroke="none" 
	d="
M320.531342,1.000000 
	C326.198639,1.657966 331.439850,2.082425 336.587555,3.020050 
	C349.281860,5.332257 361.932404,7.884449 374.602509,10.330008 
	C377.891815,10.964897 379.186981,12.726123 379.055939,16.250931 
	C378.779480,23.688169 378.971863,31.142839 378.971863,39.163548 
	C277.220520,11.886489 190.486969,36.103104 117.598419,112.433647 
	C114.950844,108.052086 112.429047,103.889145 109.921959,99.717369 
	C109.579628,99.147736 109.315239,98.531616 109.007011,97.941071 
	C103.692825,87.759598 103.610207,87.675285 112.068588,79.426651 
	C151.281174,41.186443 197.535400,16.201456 251.483673,5.994617 
	C262.028107,3.999646 272.764740,3.020760 283.706360,1.286614 
	C296.020905,1.000000 308.041779,1.000000 320.531342,1.000000 
z"/>
<path fill="#909E3F" opacity="1.000000" stroke="none" 
	d="
M2135.991211,129.048950 
	C2156.546875,170.877335 2156.291992,211.491135 2130.047363,250.479355 
	C2120.455811,264.728394 2106.625244,274.447662 2091.243896,281.909241 
	C2089.767090,282.625702 2088.301270,283.364990 2086.313232,284.349915 
	C2109.506104,317.621948 2132.476562,350.574738 2155.981934,384.294800 
	C2153.359863,384.449097 2151.767090,384.623596 2150.174072,384.624390 
	C2127.677246,384.635376 2105.180176,384.556702 2082.684326,384.690247 
	C2079.474854,384.709320 2077.583496,383.717804 2075.760498,381.064026 
	C2057.559570,354.566864 2039.174805,328.195923 2020.971191,301.700592 
	C2019.085571,298.956146 2017.193848,297.735138 2013.739990,297.765656 
	C1993.418091,297.945282 1973.093750,297.854034 1952.268311,297.854034 
	C1952.268311,326.650635 1952.268311,355.229797 1952.268311,384.212616 
	C1927.902954,384.212616 1904.036499,384.212616 1879.650879,384.212616 
	C1879.563721,382.414246 1879.402954,380.643768 1879.402710,378.873260 
	C1879.389160,278.552765 1879.416748,178.232254 1879.292847,77.911911 
	C1879.287476,73.562706 1880.330078,72.269363 1884.813477,72.286102 
	C1929.473755,72.452797 1974.137817,72.080887 2018.794922,72.490044 
	C2047.095215,72.749344 2074.381592,78.075340 2099.222900,92.626686 
	C2114.472168,101.559334 2126.714600,113.554344 2135.991211,129.048950 
M2043.071411,136.294968 
	C2034.919434,134.815308 2026.799561,132.312317 2018.609253,132.055206 
	C1997.313354,131.386719 1975.986572,131.700882 1954.672119,131.643951 
	C1953.901733,131.641891 1953.130859,131.860962 1952.263916,131.991470 
	C1952.263916,168.057129 1952.263916,203.780518 1952.263916,240.657928 
	C1977.946411,239.964478 2003.557983,241.094193 2028.685181,238.124649 
	C2058.798584,234.565826 2073.307373,219.411377 2076.412842,192.414062 
	C2079.204590,168.144775 2070.115234,146.042984 2043.071411,136.294968 
z"/>
<path fill="#909E40" opacity="1.000000" stroke="none" 
	d="
M1757.000000,254.611908 
	C1731.860229,254.611679 1707.220459,254.611679 1682.218506,254.611679 
	C1682.218506,278.512756 1682.218506,302.054657 1682.218506,326.132874 
	C1738.440308,326.132874 1794.499390,326.132874 1850.855469,326.132874 
	C1850.855469,345.750336 1850.855469,364.835327 1850.855469,384.271973 
	C1770.729370,384.271973 1690.674072,384.271973 1610.231934,384.271973 
	C1610.231934,280.543304 1610.231934,176.844925 1610.231934,72.381699 
	C1611.957275,72.381699 1613.717773,72.381683 1615.478271,72.381706 
	C1690.126831,72.382706 1764.775391,72.438690 1839.423584,72.264297 
	C1844.544312,72.252335 1845.858887,73.595490 1845.745728,78.649605 
	C1845.399170,94.138084 1845.455811,109.642090 1845.723999,125.133690 
	C1845.800171,129.538940 1844.601440,130.727371 1840.161255,130.713135 
	C1789.840698,130.551666 1739.519409,130.610428 1689.198242,130.610214 
	C1687.040283,130.610199 1684.882324,130.610199 1682.290039,130.610199 
	C1682.290039,153.062424 1682.290039,175.249695 1682.290039,197.951294 
	C1730.226440,197.951294 1778.126221,197.951294 1826.614136,197.951294 
	C1826.614136,203.576813 1826.614380,208.700104 1826.613892,213.823395 
	C1826.612915,225.487228 1826.417114,237.155945 1826.709351,248.812424 
	C1826.821289,253.277115 1825.749268,254.791260 1820.983643,254.730026 
	C1799.825317,254.458298 1778.661743,254.612183 1757.000000,254.611908 
z"/>
<path fill="#8F9D3F" opacity="1.000000" stroke="none" 
	d="
M759.995544,124.000000 
	C759.995544,106.693970 759.995544,89.887932 759.995544,72.391212 
	C762.348694,72.391212 764.301453,72.391266 766.254211,72.391205 
	C810.084229,72.389931 853.916138,72.143982 897.743652,72.473747 
	C926.737915,72.691895 954.784546,77.729752 980.068054,92.979675 
	C1011.383606,111.867905 1027.558716,140.026535 1030.155029,176.282822 
	C1031.862427,200.125473 1028.046387,222.823456 1015.451965,243.441727 
	C998.826538,270.659271 973.336060,285.246277 943.251160,292.977234 
	C927.519592,297.019806 911.465393,298.490967 895.279358,298.585480 
	C876.281372,298.696442 857.282349,298.610809 838.283752,298.610413 
	C836.474854,298.610382 834.665955,298.610382 832.345703,298.610382 
	C832.345703,327.315063 832.345703,355.573181 832.345703,384.222961 
	C808.119873,384.222961 784.402405,384.222961 759.995544,384.222961 
	C759.995544,297.666931 759.995544,211.083466 759.995544,124.000000 
M953.619324,206.959396 
	C957.338074,197.575409 957.849121,187.752167 956.826721,177.924911 
	C955.348755,163.718277 949.419434,151.736252 937.394592,143.368118 
	C926.679932,135.911804 914.473206,132.454620 901.683044,132.109451 
	C879.535156,131.511749 857.364929,131.736954 835.204041,131.638306 
	C834.399353,131.634720 833.593689,131.855728 832.478271,132.016876 
	C832.478271,167.687256 832.478271,203.246979 832.478271,238.973129 
	C833.702271,239.134583 834.663818,239.370987 835.625671,239.372162 
	C855.125122,239.396057 874.627991,239.604126 894.122131,239.284256 
	C901.234680,239.167542 908.454041,238.370148 915.402222,236.859833 
	C932.511047,233.140961 946.308289,224.718109 953.619324,206.959396 
z"/>
<path fill="#909D3F" opacity="1.000000" stroke="none" 
	d="
M1217.997314,150.999496 
	C1252.622681,228.482681 1287.116211,305.610565 1321.599976,382.742859 
	C1321.729492,383.032562 1321.716553,383.385956 1321.849854,384.190308 
	C1320.610352,384.327057 1319.396851,384.576141 1318.183105,384.577759 
	C1295.692505,384.607635 1273.201172,384.529114 1250.711792,384.698212 
	C1247.272827,384.724060 1245.797363,383.504120 1244.552124,380.429504 
	C1236.688843,361.012756 1228.550293,341.707550 1220.667847,322.298401 
	C1219.388062,319.147278 1217.927246,317.746948 1214.225342,317.759277 
	C1169.077759,317.909637 1123.929443,317.906281 1078.781860,317.758270 
	C1075.141846,317.746338 1073.530273,319.002228 1072.237061,322.193665 
	C1064.555298,341.149536 1056.553345,359.976807 1049.003174,378.984009 
	C1047.245239,383.409546 1044.919678,384.792847 1040.236816,384.732819 
	C1019.582031,384.467926 998.921936,384.615417 978.263794,384.613617 
	C976.635132,384.613464 975.006470,384.613617 972.535339,384.613617 
	C973.418457,382.325684 973.970581,380.681702 974.673401,379.104889 
	C1019.564209,278.384247 1064.486938,177.677780 1109.285889,76.916336 
	C1110.814819,73.477310 1112.609619,72.276222 1116.331421,72.307945 
	C1136.654907,72.481216 1156.981567,72.493073 1177.304688,72.304291 
	C1181.345215,72.266762 1183.443604,73.396385 1185.142456,77.279800 
	C1195.874512,101.811462 1206.921875,126.205093 1217.997314,150.999496 
M1143.636353,151.159851 
	C1128.301636,188.187439 1112.966919,225.215027 1097.496948,262.569214 
	C1130.743408,262.569214 1162.951050,262.569214 1195.831177,262.569214 
	C1179.442871,223.002762 1163.258057,183.927414 1146.716675,143.991364 
	C1145.495850,146.817413 1144.709473,148.637802 1143.636353,151.159851 
z"/>
<path fill="#8F9D3F" opacity="1.000000" stroke="none" 
	d="
M2178.125977,299.936951 
	C2192.055176,308.564575 2206.236572,316.178925 2221.653320,321.297577 
	C2251.363770,331.162109 2281.566895,335.494934 2312.458252,327.915894 
	C2318.753174,326.371429 2325.123291,323.367126 2330.335938,319.515839 
	C2345.055664,308.640106 2344.962402,287.921570 2329.554932,278.168762 
	C2320.315186,272.320160 2309.598633,268.252747 2299.023926,265.182159 
	C2278.133057,259.115967 2256.767090,254.701523 2235.809570,248.845490 
	C2216.622559,243.484192 2198.440430,235.748062 2183.388672,222.043625 
	C2168.840332,208.797394 2161.500977,192.136322 2160.044434,172.775528 
	C2156.425293,124.667061 2184.505615,92.531654 2224.204346,77.900040 
	C2251.080078,67.994461 2278.947754,65.867790 2307.303223,67.708221 
	C2335.314941,69.526337 2362.239258,75.521881 2387.552979,87.986298 
	C2399.968750,94.099915 2399.985596,94.062187 2394.921143,106.540176 
	C2389.854736,119.022392 2384.802246,131.510376 2379.714600,143.983948 
	C2378.980225,145.784088 2378.082031,147.517456 2377.299316,149.196014 
	C2367.721924,144.902145 2358.671143,140.336823 2349.255859,136.720856 
	C2323.518555,126.836411 2296.987061,122.498535 2269.467041,126.979225 
	C2257.952637,128.853943 2247.081299,132.306442 2238.924072,141.373917 
	C2227.666504,153.887711 2229.649414,171.810699 2243.498047,181.340820 
	C2254.253418,188.742371 2266.739990,191.855667 2279.131836,195.130447 
	C2303.061768,201.454376 2327.196533,207.109238 2350.849365,214.339447 
	C2368.349365,219.688889 2384.137207,228.817200 2396.182129,243.210220 
	C2410.415283,260.218018 2414.801758,280.223450 2412.423096,301.668671 
	C2407.834229,343.036652 2382.064941,366.756012 2344.835693,380.001892 
	C2318.880615,389.236542 2291.910645,391.018738 2264.573730,389.256226 
	C2235.945068,387.410431 2208.182129,381.779205 2181.937744,370.029266 
	C2173.025146,366.038971 2164.703613,360.692291 2156.290039,355.666992 
	C2155.196045,355.013428 2154.274902,352.172760 2154.786865,351.012604 
	C2162.301514,333.977936 2170.072510,317.056671 2178.125977,299.936951 
z"/>
<path fill="#8F9D3F" opacity="1.000000" stroke="none" 
	d="
M1433.206299,69.083145 
	C1462.223267,65.247864 1490.448975,66.725311 1518.136353,75.068115 
	C1545.210815,83.226257 1568.460815,97.549950 1587.308594,118.778305 
	C1588.289062,119.882607 1589.166992,121.077965 1590.354004,122.556717 
	C1574.944336,136.801468 1559.694458,150.898376 1543.965454,165.438278 
	C1519.856812,138.048645 1489.701538,125.786888 1453.544312,129.469040 
	C1426.744873,132.198227 1404.083618,143.263367 1386.910522,164.506973 
	C1355.610474,203.225983 1359.909424,267.997589 1395.649536,302.111328 
	C1429.622070,334.537811 1501.010742,342.426392 1544.156616,291.266846 
	C1559.511841,305.429504 1574.844238,319.571167 1590.445068,333.960510 
	C1579.434937,347.661865 1566.588135,358.551941 1551.801270,367.166199 
	C1528.635620,380.661713 1503.479492,387.308105 1476.843140,389.230804 
	C1443.285889,391.653107 1410.941406,386.965057 1380.764771,371.875305 
	C1330.056396,346.518829 1300.887207,305.332458 1293.965942,249.016129 
	C1289.135986,209.716248 1296.397461,172.670029 1318.431885,139.345062 
	C1343.253906,101.804726 1378.909302,80.278946 1422.463379,71.031570 
	C1425.877930,70.306580 1429.331787,69.767410 1433.206299,69.083145 
z"/>
<path fill="#1388A9" opacity="1.000000" stroke="none" 
	d="
M400.000580,45.301636 
	C402.295776,26.959944 414.785522,14.390670 432.117981,12.522292 
	C448.926208,10.710423 465.286407,20.675591 470.178192,36.230801 
	C471.545807,40.579678 471.928040,45.392555 471.931580,49.993214 
	C471.986572,121.324669 471.947815,192.656326 471.761292,263.987518 
	C471.748260,268.955566 473.007751,272.177643 477.359680,275.048615 
	C522.191467,304.623810 513.957520,372.548462 467.680573,394.326111 
	C425.090759,414.368561 376.220703,392.720764 364.627106,347.614502 
	C357.357574,319.331482 370.164032,288.467010 395.760254,273.184357 
	C398.880066,271.321625 400.214966,269.391693 400.209351,265.750275 
	C400.119781,207.753403 400.157562,149.756332 400.140656,91.759323 
	C400.136169,76.428062 400.045288,61.096828 400.000580,45.301636 
M416.150360,235.499985 
	C416.151733,248.831406 415.958923,262.167114 416.253845,275.492035 
	C416.365692,280.546600 414.693756,283.165833 409.954681,285.291931 
	C390.296631,294.110962 377.941925,315.458618 380.191040,335.727997 
	C384.562225,375.121704 427.362610,397.394867 461.862091,377.796661 
	C479.987549,367.500122 490.341217,351.446442 489.635162,330.289307 
	C488.957367,309.978424 479.111694,294.487610 460.476440,285.426666 
	C456.169952,283.332703 455.544098,280.175476 455.551849,276.100708 
	C455.605530,247.780930 455.545380,219.460968 455.586548,191.141144 
	C455.642975,152.318405 455.777618,113.495766 455.830139,74.673019 
	C455.841858,66.013275 455.789703,57.348953 455.521240,48.694359 
	C455.126923,35.983685 443.942688,27.301706 431.536285,29.884506 
	C421.990265,31.871832 416.160889,40.010803 416.157990,51.524284 
	C416.142609,112.516182 416.150574,173.508072 416.150360,235.499985 
z"/>
<path fill="#1288A9" opacity="1.000000" stroke="none" 
	d="
M685.701355,368.698792 
	C673.466125,381.079468 659.772644,389.482086 641.972229,389.175201 
	C620.843201,388.810883 607.514160,373.544281 611.769470,352.729523 
	C615.856140,332.739288 621.388062,313.034241 626.599243,293.286804 
	C632.660950,270.316742 639.070068,247.438370 645.309570,224.515091 
	C645.833069,222.591736 646.334839,220.648209 646.638733,218.681900 
	C647.789368,211.236862 644.540649,206.362305 637.161255,204.982697 
	C631.795227,203.979507 626.335632,203.476852 620.676270,202.718674 
	C620.676270,198.934982 620.676270,195.174286 620.676270,191.916229 
	C650.424866,188.030701 679.873718,184.184311 709.612427,180.300079 
	C706.332397,192.353317 702.862000,204.928299 699.490173,217.529648 
	C688.841187,257.327637 678.190247,297.125214 667.660828,336.954865 
	C666.563965,341.104187 665.876343,345.450104 665.701843,349.733398 
	C665.463318,355.586304 670.020386,358.857697 675.311523,356.271027 
	C679.534424,354.206512 683.695190,351.268982 686.766663,347.745453 
	C693.851257,339.618011 700.256836,330.898712 707.384521,321.852814 
	C710.027161,323.488342 713.182251,325.441010 717.563721,328.152710 
	C706.819824,341.848175 696.385498,355.149017 685.701355,368.698792 
z"/>
<path fill="#BFDFF0" opacity="1.000000" stroke="none" 
	d="
M529.997314,122.032219 
	C550.343262,153.334641 564.643250,186.755508 570.847839,223.298462 
	C573.058777,236.320343 574.233459,249.580215 574.953247,262.782043 
	C577.463745,308.828308 567.919617,352.452423 547.148865,393.558319 
	C541.767944,404.207275 535.454956,414.386841 529.510559,424.747864 
	C528.641418,426.262787 527.439636,427.586823 526.227478,429.220551 
	C520.481018,421.902130 515.015442,415.087372 509.797577,408.087952 
	C509.227142,407.322723 509.681580,405.244110 510.336151,404.196808 
	C521.930542,385.645599 531.715820,366.152618 537.272827,345.003326 
	C541.506409,328.890900 544.671570,312.387024 546.776733,295.861725 
	C548.405884,283.073273 548.548767,269.928406 547.773132,257.037018 
	C546.354370,233.454987 541.572937,210.423645 533.129333,188.243881 
	C526.361389,170.465729 518.061768,153.485184 507.455383,137.654099 
	C506.584229,136.353836 506.046875,134.564316 506.033875,132.996506 
	C505.923492,119.678658 505.970734,106.359512 505.970734,91.760643 
	C515.788818,101.161072 522.279114,111.875160 529.997314,122.032219 
z"/>
<path fill="#1288A9" opacity="1.000000" stroke="none" 
	d="
M715.905640,86.030930 
	C727.468384,96.468277 730.637878,110.822426 724.369446,123.221031 
	C717.974915,135.869019 704.772949,142.035370 690.455566,139.061310 
	C676.828064,136.230591 666.182983,122.094452 667.222839,108.209435 
	C668.382141,92.729012 680.237244,80.709251 695.027954,79.882477 
	C702.616272,79.458305 709.560608,81.031487 715.905640,86.030930 
z"/>
<path fill="#1388A9" opacity="1.000000" stroke="none" 
	d="
M303.339172,84.534523 
	C308.713043,72.508652 313.891113,60.836887 319.194031,49.222137 
	C319.744995,48.015450 321.037201,47.147194 321.985474,46.121902 
	C322.886261,46.998997 324.133240,47.713108 324.634674,48.778225 
	C330.073364,60.330032 335.650146,71.827927 340.664764,83.564621 
	C344.417572,92.348091 341.603699,101.494011 334.389374,106.673218 
	C326.468811,112.359428 316.247070,112.229614 309.028076,106.018845 
	C302.459595,100.367729 300.444641,93.240593 303.339172,84.534523 
z"/>
<path fill="#1388A9" opacity="1.000000" stroke="none" 
	d="
M354.465942,136.610962 
	C360.610596,149.272949 366.755554,161.600342 372.204071,174.228226 
	C375.959991,182.933273 372.908234,191.755066 365.352417,197.098251 
	C358.087585,202.235672 348.065796,202.106781 341.139313,196.786850 
	C333.913208,191.236816 331.446198,182.277328 335.203552,173.583298 
	C340.206696,162.006729 345.470245,150.540939 350.788574,139.105087 
	C351.333160,137.934113 353.015045,137.292053 354.465942,136.610962 
z"/>
<path fill="#1388A9" opacity="1.000000" stroke="none" 
	d="
M292.760010,130.225342 
	C295.570526,136.473022 298.515594,142.267303 300.817749,148.306656 
	C305.217804,159.849640 299.237061,171.221573 287.373077,174.500458 
	C276.117523,177.611191 264.570679,170.741714 262.509216,159.146637 
	C261.907501,155.762238 262.470093,151.729065 263.788818,148.523972 
	C268.652191,136.703873 274.024719,125.091957 279.309784,113.448952 
	C279.791748,112.387177 280.982666,111.016136 281.905792,110.968048 
	C282.780518,110.922493 284.079895,112.254128 284.598602,113.280319 
	C287.369751,118.762558 289.954773,124.338867 292.760010,130.225342 
z"/>
<path fill="#1C8DAC" opacity="1.000000" stroke="none" 
	d="
M488.180664,122.563202 
	C488.893738,126.243095 489.200867,129.799744 489.538544,133.709869 
	C485.117065,133.709869 481.275818,133.709869 477.218109,133.709869 
	C477.218109,130.000504 477.218109,126.451958 477.218109,122.439964 
	C480.896667,122.439964 484.335724,122.439964 488.180664,122.563202 
z"/>
<path fill="#1388A9" opacity="1.000000" stroke="none" 
	d="
M486.880066,154.151367 
	C483.465759,154.162933 480.531799,154.162933 477.392090,154.162933 
	C477.392090,150.173035 477.392090,146.776703 477.392090,143.105972 
	C481.215118,143.105972 484.802887,143.105972 489.838562,143.105972 
	C488.985382,146.904633 488.172913,150.522217 486.880066,154.151367 
z"/>
<path fill="#1C8DAC" opacity="1.000000" stroke="none" 
	d="
M483.825043,227.390900 
	C485.729004,227.391251 487.186707,227.391251 488.952515,227.391251 
	C488.952515,230.348129 488.952515,232.915909 488.952515,235.756866 
	C485.179840,235.756866 481.452545,235.756866 477.346497,235.756866 
	C477.346497,233.292465 477.346497,230.748474 477.346497,227.390564 
	C479.267303,227.390564 481.323029,227.390564 483.825043,227.390900 
z"/>
<path fill="#1388A9" opacity="1.000000" stroke="none" 
	d="
M477.630402,99.522774 
	C481.532837,99.192986 485.114838,99.192986 488.928101,99.192986 
	C488.928101,102.183022 488.928101,104.895866 488.928101,107.888390 
	C485.023315,107.888390 481.335114,107.888390 477.309967,107.888390 
	C477.309967,105.031197 477.309967,102.441879 477.630402,99.522774 
z"/>
<path fill="#1C8DAC" opacity="1.000000" stroke="none" 
	d="
M488.379120,168.270996 
	C489.128052,170.733963 489.457184,173.084427 489.832489,175.764908 
	C485.349152,175.764908 481.599548,175.764908 477.481384,175.764908 
	C477.481384,173.397034 477.481384,171.038940 477.481384,168.158478 
	C481.074432,168.158478 484.516876,168.158478 488.379120,168.270996 
z"/>
<path fill="#1388A9" opacity="1.000000" stroke="none" 
	d="
M488.996887,58.296806 
	C489.115784,60.694519 489.115784,62.639812 489.115784,64.874176 
	C485.065704,64.874176 481.350861,64.874176 477.310974,64.874176 
	C477.310974,62.483566 477.310974,60.110386 477.310974,56.937340 
	C481.230499,57.244698 485.054230,57.544540 488.996887,58.296806 
z"/>
<path fill="#1C8DAC" opacity="1.000000" stroke="none" 
	d="
M484.000824,216.187485 
	C481.574310,216.187759 479.628815,216.187759 477.402588,216.187759 
	C477.402588,213.444565 477.402588,211.191513 477.402588,208.528610 
	C481.071106,208.528610 484.762451,208.528610 488.829651,208.528610 
	C488.829651,210.853104 488.829651,213.220444 488.829651,215.917511 
	C487.360260,216.008652 485.921021,216.097931 484.000824,216.187485 
z"/>
<path fill="#1288A9" opacity="1.000000" stroke="none" 
	d="
M482.070404,198.004730 
	C480.151672,197.921204 478.710327,197.837357 477.143402,197.746185 
	C477.143402,195.147186 477.143402,192.877945 477.143402,190.301941 
	C481.001556,190.301941 484.728668,190.301941 488.812805,190.301941 
	C488.812805,192.645340 488.812805,195.020813 488.812805,198.004395 
	C486.747284,198.004395 484.647522,198.004395 482.070404,198.004730 
z"/>
<path fill="#1C8DAC" opacity="1.000000" stroke="none" 
	d="
M489.077515,84.911621 
	C485.303650,85.754852 481.610901,86.126045 477.493225,86.539948 
	C477.493225,83.543251 477.493225,81.169006 477.493225,78.453850 
	C481.221130,78.453850 484.923584,78.453850 489.158600,78.453850 
	C489.158600,80.563568 489.158600,82.501579 489.077515,84.911621 
z"/>
<path fill="#BFDFF0" opacity="1.000000" stroke="none" 
	d="
M430.283936,512.971191 
	C430.687103,512.519775 431.457642,512.120483 432.570984,511.673523 
	C432.159576,512.091675 431.405426,512.557495 430.283936,512.971191 
z"/>
<path fill="#FEFFFE" opacity="1.000000" stroke="none" 
	d="
M368.028809,508.498871 
	C359.784973,510.814453 351.410645,513.809448 342.812347,514.743835 
	C327.008728,516.461243 311.045593,518.116028 295.198578,517.734497 
	C262.879944,516.956482 231.830933,509.674133 202.293015,496.181396 
	C170.183395,481.513947 142.530197,460.813324 119.199966,434.502655 
	C101.444557,414.478943 87.416748,391.954407 77.143394,367.140900 
	C68.648628,346.623291 62.999054,325.339691 60.175850,303.374603 
	C56.573532,275.347839 58.100601,247.479034 64.170242,219.867508 
	C64.594749,217.936371 64.779213,215.952484 65.089447,213.573517 
	C88.681831,214.497467 111.893127,210.671829 135.200607,208.188416 
	C149.180954,206.698792 160.120224,207.732925 172.652832,211.778976 
	C170.124329,199.622406 163.746704,190.239380 154.520096,182.726868 
	C139.592224,170.572220 121.784554,165.344437 103.258469,162.063721 
	C97.380066,161.022766 91.428055,160.397568 84.918991,159.500702 
	C86.169838,158.861313 86.965858,158.116547 87.792259,158.081146 
	C111.155106,157.080612 134.065796,158.619690 155.226303,170.093338 
	C171.066208,178.682037 183.463730,190.189163 187.620331,208.518875 
	C190.538849,221.388947 189.688751,234.315598 187.462494,247.214157 
	C184.625137,263.653290 184.110474,280.021118 190.020355,295.974640 
	C195.160339,309.849792 204.396988,319.761597 218.693954,324.522217 
	C219.451950,324.774597 220.154755,325.192719 220.099289,325.166779 
	C221.180695,335.953857 221.245895,346.389954 223.422989,356.365082 
	C228.593170,380.054108 243.452957,395.705017 266.287018,403.569092 
	C270.033447,404.859406 270.993683,406.524170 270.936249,410.244263 
	C270.676361,427.088684 274.635925,442.729889 286.225769,455.487183 
	C299.402832,469.991547 316.622528,474.642822 335.522949,473.788666 
	C340.554169,473.561340 342.652954,474.772949 344.174164,479.683960 
	C348.082947,492.303070 356.435089,501.608459 368.028809,508.498871 
M167.492447,226.552551 
	C148.804962,219.518951 132.431473,223.122849 118.836357,237.718750 
	C113.522934,243.423340 108.924881,249.804321 104.120651,255.970444 
	C98.752777,262.859985 94.231888,270.542999 85.811249,274.879791 
	C93.027756,276.762604 100.122520,278.732727 107.342117,279.454865 
	C125.624710,281.283539 142.958527,278.486084 157.606476,266.325226 
	C165.096130,260.107269 169.446274,252.181183 168.924118,240.307861 
	C154.704590,246.529938 141.384567,252.358398 128.177170,258.137604 
	C128.905991,257.121887 129.750702,255.898895 130.641449,254.710419 
	C139.312958,243.140457 151.503510,236.352066 164.059921,230.029327 
	C165.551193,229.278397 166.762207,227.970932 167.492447,226.552551 
z"/>
<path fill="#F7F8F0" opacity="1.000000" stroke="none" 
	d="
M238.642303,365.331238 
	C245.477875,375.066071 252.114883,384.494812 258.457397,393.505188 
	C243.952393,390.021088 228.687119,367.158752 227.206207,345.085480 
	C231.202972,352.177277 234.823364,358.601196 238.642303,365.331238 
z"/>
<path fill="#F7F8F0" opacity="1.000000" stroke="none" 
	d="
M291.769989,453.231110 
	C286.069519,447.466278 282.376495,440.954895 279.751312,432.687622 
	C296.518372,452.289276 304.122467,458.209534 327.982849,468.198944 
	C313.516388,467.281586 301.713043,462.965363 291.769989,453.231110 
z"/>
<path fill="#F7F8F0" opacity="1.000000" stroke="none" 
	d="
M215.060852,315.948303 
	C214.424057,315.902283 213.693619,316.045135 213.164139,315.782654 
	C199.571091,309.044006 187.699539,285.082184 190.468643,268.952057 
	C195.468033,286.585907 201.271591,303.043945 214.883224,315.688721 
	C215.012390,315.987244 215.060852,315.948303 215.060852,315.948303 
z"/>
<path fill="#BDDCE6" opacity="1.000000" stroke="none" 
	d="
M382.941406,504.277893 
	C397.846710,507.277008 412.851013,507.920532 427.976898,506.414398 
	C411.957916,512.218811 395.844604,513.202576 379.451050,506.842773 
	C380.532562,505.702423 381.737000,504.990173 382.941406,504.277893 
z"/>
<path fill="#F7F8F0" opacity="1.000000" stroke="none" 
	d="
M382.572601,504.155121 
	C381.737000,504.990173 380.532562,505.702423 379.128906,506.644409 
	C373.413055,503.774353 367.896423,500.674561 362.163422,497.318665 
	C361.947052,497.062622 361.921021,497.101349 361.921021,497.101349 
	C368.681946,499.411682 375.442841,501.722015 382.572601,504.155121 
z"/>
<path fill="#FFFFFF" opacity="1.000000" stroke="none" 
	d="
M317.076447,390.062439 
	C316.910309,390.501404 316.708984,390.912506 316.507660,391.323639 
	C316.503418,390.943268 316.499207,390.562927 316.733215,390.080353 
	C316.971497,389.978149 317.041229,390.034607 317.076447,390.062439 
z"/>
<path fill="#FFFFFF" opacity="1.000000" stroke="none" 
	d="
M238.155701,267.855255 
	C238.436691,268.253387 238.575241,268.780487 238.713776,269.307617 
	C238.426208,269.123260 238.138626,268.938904 237.787689,268.496124 
	C237.724350,268.237701 238.013260,267.984253 238.155701,267.855255 
z"/>
<path fill="#F7F8F0" opacity="1.000000" stroke="none" 
	d="
M214.988068,316.006592 
	C215.160477,316.231384 215.357178,316.436859 215.553879,316.642334 
	C215.331573,316.573822 215.109268,316.505341 214.973907,316.192566 
	C215.060852,315.948303 215.012390,315.987244 214.988068,316.006592 
z"/>
<path fill="#F7F8F0" opacity="1.000000" stroke="none" 
	d="
M260.265076,394.326141 
	C260.528229,394.334839 260.588104,394.517151 260.647949,394.699463 
	C260.452576,394.632904 260.257172,394.566345 260.265076,394.326141 
z"/>
<path fill="#F7F8F0" opacity="1.000000" stroke="none" 
	d="
M361.966309,497.051331 
	C361.985535,497.040009 361.635651,496.699158 361.635651,496.699158 
	C361.635651,496.699158 361.875671,496.835876 361.898346,496.968628 
	C361.921021,497.101349 361.947052,497.062622 361.966309,497.051331 
z"/>
<path fill="#FFFFFE" opacity="1.000000" stroke="none" 
	d="
M2043.426514,136.461487 
	C2070.115234,146.042984 2079.204590,168.144775 2076.412842,192.414062 
	C2073.307373,219.411377 2058.798584,234.565826 2028.685181,238.124649 
	C2003.557983,241.094193 1977.946411,239.964478 1952.263916,240.657928 
	C1952.263916,203.780518 1952.263916,168.057129 1952.263916,131.991470 
	C1953.130859,131.860962 1953.901733,131.641891 1954.672119,131.643951 
	C1975.986572,131.700882 1997.313354,131.386719 2018.609253,132.055206 
	C2026.799561,132.312317 2034.919434,134.815308 2043.426514,136.461487 
z"/>
<path fill="#FEFFFE" opacity="1.000000" stroke="none" 
	d="
M953.453613,207.310577 
	C946.308289,224.718109 932.511047,233.140961 915.402222,236.859833 
	C908.454041,238.370148 901.234680,239.167542 894.122131,239.284256 
	C874.627991,239.604126 855.125122,239.396057 835.625671,239.372162 
	C834.663818,239.370987 833.702271,239.134583 832.478271,238.973129 
	C832.478271,203.246979 832.478271,167.687256 832.478271,132.016876 
	C833.593689,131.855728 834.399353,131.634720 835.204041,131.638306 
	C857.364929,131.736954 879.535156,131.511749 901.683044,132.109451 
	C914.473206,132.454620 926.679932,135.911804 937.394592,143.368118 
	C949.419434,151.736252 955.348755,163.718277 956.826721,177.924911 
	C957.849121,187.752167 957.338074,197.575409 953.453613,207.310577 
z"/>
<path fill="#FEFEFD" opacity="1.000000" stroke="none" 
	d="
M1143.779785,150.809021 
	C1144.709473,148.637802 1145.495850,146.817413 1146.716675,143.991364 
	C1163.258057,183.927414 1179.442871,223.002762 1195.831177,262.569214 
	C1162.951050,262.569214 1130.743408,262.569214 1097.496948,262.569214 
	C1112.966919,225.215027 1128.301636,188.187439 1143.779785,150.809021 
z"/>
<path fill="#FAFCFD" opacity="1.000000" stroke="none" 
	d="
M416.150391,234.999969 
	C416.150574,173.508072 416.142609,112.516182 416.157990,51.524284 
	C416.160889,40.010803 421.990265,31.871832 431.536285,29.884506 
	C443.942688,27.301706 455.126923,35.983685 455.521240,48.694359 
	C455.789703,57.348953 455.841858,66.013275 455.830139,74.673019 
	C455.777618,113.495766 455.642975,152.318405 455.586548,191.141144 
	C455.545380,219.460968 455.605530,247.780930 455.551849,276.100708 
	C455.544098,280.175476 456.169952,283.332703 460.476440,285.426666 
	C479.111694,294.487610 488.957367,309.978424 489.635162,330.289307 
	C490.341217,351.446442 479.987549,367.500122 461.862091,377.796661 
	C427.362610,397.394867 384.562225,375.121704 380.191040,335.727997 
	C377.941925,315.458618 390.296631,294.110962 409.954681,285.291931 
	C414.693756,283.165833 416.365692,280.546600 416.253845,275.492035 
	C415.958923,262.167114 416.151733,248.831406 416.150391,234.999969 
M443.443909,272.733459 
	C443.574890,271.075012 443.818298,269.416656 443.820007,267.758057 
	C443.846771,241.934235 443.844574,216.110397 443.835266,190.286545 
	C443.834930,189.323700 443.694092,188.360931 443.598114,187.134872 
	C438.443726,187.134872 433.555695,187.134872 428.166779,187.134872 
	C428.166779,189.185898 428.167084,190.981659 428.166779,192.777420 
	C428.161987,220.264893 427.987061,247.753937 428.240265,275.239014 
	C428.334564,285.473572 424.318176,291.925690 414.803711,296.187714 
	C400.543823,302.575439 392.537628,314.287140 392.165314,329.912567 
	C391.735229,347.963715 400.571930,361.294403 416.774628,368.849243 
	C432.952148,376.392334 448.821747,374.491180 462.566071,362.945343 
	C484.969330,344.125732 482.491638,309.900360 457.635406,297.393036 
	C447.196991,292.140564 442.750000,284.794250 443.443909,272.733459 
z"/>
<path fill="#919E41" opacity="1.000000" stroke="none" 
	d="
M167.797791,226.737000 
	C166.762207,227.970932 165.551193,229.278397 164.059921,230.029327 
	C151.503510,236.352066 139.312958,243.140457 130.641449,254.710419 
	C129.750702,255.898895 128.905991,257.121887 128.177170,258.137604 
	C141.384567,252.358398 154.704590,246.529938 168.924118,240.307861 
	C169.446274,252.181183 165.096130,260.107269 157.606476,266.325226 
	C142.958527,278.486084 125.624710,281.283539 107.342117,279.454865 
	C100.122520,278.732727 93.027756,276.762604 85.811249,274.879791 
	C94.231888,270.542999 98.752777,262.859985 104.120651,255.970444 
	C108.924881,249.804321 113.522934,243.423340 118.836357,237.718750 
	C132.431473,223.122849 148.804962,219.518951 167.797791,226.737000 
z"/>
<path fill="#1288A9" opacity="1.000000" stroke="none" 
	d="
M443.443115,273.181488 
	C442.750000,284.794250 447.196991,292.140564 457.635406,297.393036 
	C482.491638,309.900360 484.969330,344.125732 462.566071,362.945343 
	C448.821747,374.491180 432.952148,376.392334 416.774628,368.849243 
	C400.571930,361.294403 391.735229,347.963715 392.165314,329.912567 
	C392.537628,314.287140 400.543823,302.575439 414.803711,296.187714 
	C424.318176,291.925690 428.334564,285.473572 428.240265,275.239014 
	C427.987061,247.753937 428.161987,220.264893 428.166779,192.777420 
	C428.167084,190.981659 428.166779,189.185898 428.166779,187.134872 
	C433.555695,187.134872 438.443726,187.134872 443.598114,187.134872 
	C443.694092,188.360931 443.834930,189.323700 443.835266,190.286545 
	C443.844574,216.110397 443.846771,241.934235 443.820007,267.758057 
	C443.818298,269.416656 443.574890,271.075012 443.443115,273.181488 
z"/>
</svg>